<svg xmlns="http://www.w3.org/2000/svg" xmlns:xlink="http://www.w3.org/1999/xlink" width="64" zoomAndPan="magnify" viewBox="0 0 48 48" height="64" preserveAspectRatio="xMidYMid meet" version="1.0"><defs><clipPath id="91f449cfd6"><path d="M 0.488281 0 L 46.777344 0 L 46.777344 46.285156 L 0.488281 46.285156 Z M 0.488281 0 " clip-rule="nonzero"/></clipPath></defs><g clip-path="url(#91f449cfd6)"><path fill="#ffffff" d="M 44.628906 17.816406 L 41.527344 17.042969 L 40.675781 14.984375 L 42.320312 12.238281 C 42.496094 11.949219 42.617188 11.640625 42.6875 11.308594 C 42.757812 10.980469 42.773438 10.648438 42.730469 10.3125 C 42.691406 9.976562 42.59375 9.65625 42.445312 9.355469 C 42.300781 9.050781 42.105469 8.78125 41.867188 8.539062 L 38.382812 5.058594 C 38.144531 4.820312 37.875 4.625 37.570312 4.480469 C 37.269531 4.332031 36.949219 4.234375 36.613281 4.195312 C 36.277344 4.152344 35.945312 4.167969 35.617188 4.238281 C 35.285156 4.308594 34.976562 4.429688 34.6875 4.605469 L 31.941406 6.25 L 29.882812 5.398438 L 29.109375 2.292969 C 29.027344 1.964844 28.894531 1.660156 28.707031 1.375 C 28.523438 1.09375 28.300781 0.847656 28.03125 0.640625 C 27.765625 0.433594 27.472656 0.273438 27.152344 0.164062 C 26.835938 0.0546875 26.503906 0 26.167969 0 L 21.246094 0 C 20.910156 0 20.582031 0.0546875 20.261719 0.164062 C 19.941406 0.273438 19.648438 0.433594 19.382812 0.640625 C 19.117188 0.847656 18.890625 1.09375 18.707031 1.378906 C 18.523438 1.660156 18.390625 1.964844 18.308594 2.292969 L 17.53125 5.398438 L 15.472656 6.25 L 12.730469 4.605469 C 12.441406 4.429688 12.132812 4.308594 11.800781 4.238281 C 11.472656 4.167969 11.136719 4.152344 10.804688 4.195312 C 10.46875 4.238281 10.148438 4.332031 9.84375 4.480469 C 9.539062 4.628906 9.269531 4.820312 9.03125 5.058594 L 5.550781 8.539062 C 5.308594 8.78125 5.117188 9.050781 4.96875 9.355469 C 4.820312 9.65625 4.726562 9.976562 4.683594 10.3125 C 4.640625 10.648438 4.65625 10.980469 4.726562 11.3125 C 4.796875 11.640625 4.917969 11.949219 5.09375 12.242188 L 6.738281 14.984375 L 5.886719 17.042969 L 2.785156 17.816406 C 2.457031 17.898438 2.152344 18.03125 1.867188 18.214844 C 1.585938 18.398438 1.339844 18.625 1.128906 18.890625 C 0.921875 19.15625 0.765625 19.449219 0.652344 19.769531 C 0.542969 20.089844 0.488281 20.417969 0.488281 20.757812 L 0.488281 25.679688 C 0.488281 26.015625 0.542969 26.34375 0.652344 26.664062 C 0.765625 26.984375 0.921875 27.277344 1.128906 27.542969 C 1.339844 27.808594 1.585938 28.035156 1.867188 28.21875 C 2.152344 28.402344 2.457031 28.535156 2.785156 28.617188 L 5.886719 29.390625 L 6.738281 31.449219 L 5.09375 34.195312 C 4.917969 34.484375 4.796875 34.792969 4.726562 35.125 C 4.65625 35.457031 4.640625 35.789062 4.683594 36.125 C 4.722656 36.457031 4.820312 36.777344 4.96875 37.082031 C 5.117188 37.382812 5.308594 37.65625 5.546875 37.894531 L 9.03125 41.375 C 9.269531 41.613281 9.539062 41.808594 9.84375 41.957031 C 10.144531 42.105469 10.464844 42.199219 10.800781 42.242188 C 11.136719 42.28125 11.46875 42.269531 11.800781 42.199219 C 12.128906 42.128906 12.441406 42.003906 12.730469 41.832031 L 15.472656 40.183594 L 17.53125 41.035156 L 18.304688 44.140625 C 18.386719 44.46875 18.523438 44.773438 18.707031 45.058594 C 18.890625 45.339844 19.117188 45.585938 19.382812 45.792969 C 19.648438 46.003906 19.941406 46.160156 20.261719 46.269531 C 20.582031 46.378906 20.910156 46.433594 21.246094 46.433594 L 26.167969 46.433594 C 26.503906 46.433594 26.835938 46.378906 27.152344 46.269531 C 27.472656 46.160156 27.765625 46 28.03125 45.792969 C 28.300781 45.585938 28.523438 45.339844 28.707031 45.058594 C 28.890625 44.773438 29.027344 44.46875 29.109375 44.140625 L 29.882812 41.035156 L 31.941406 40.183594 L 34.683594 41.832031 C 34.972656 42.003906 35.28125 42.128906 35.613281 42.199219 C 35.945312 42.269531 36.277344 42.285156 36.613281 42.242188 C 36.949219 42.203125 37.265625 42.105469 37.570312 41.957031 C 37.875 41.808594 38.144531 41.613281 38.382812 41.375 L 41.867188 37.894531 C 42.105469 37.65625 42.296875 37.386719 42.445312 37.082031 C 42.59375 36.777344 42.691406 36.457031 42.730469 36.125 C 42.773438 35.789062 42.757812 35.453125 42.6875 35.125 C 42.617188 34.792969 42.496094 34.484375 42.320312 34.195312 L 40.675781 31.449219 L 41.527344 29.390625 L 44.628906 28.617188 C 44.957031 28.535156 45.265625 28.402344 45.546875 28.21875 C 45.832031 28.035156 46.074219 27.808594 46.285156 27.542969 C 46.492188 27.277344 46.652344 26.984375 46.761719 26.664062 C 46.871094 26.34375 46.925781 26.015625 46.925781 25.679688 L 46.925781 20.757812 C 46.925781 20.417969 46.871094 20.089844 46.761719 19.769531 C 46.652344 19.449219 46.492188 19.15625 46.285156 18.890625 C 46.074219 18.625 45.828125 18.398438 45.546875 18.214844 C 45.261719 18.03125 44.957031 17.898438 44.628906 17.816406 Z M 44.90625 25.679688 C 44.90625 25.910156 44.835938 26.117188 44.691406 26.300781 C 44.550781 26.484375 44.367188 26.601562 44.140625 26.660156 L 40.546875 27.558594 C 40.214844 27.640625 39.988281 27.835938 39.855469 28.152344 L 38.613281 31.148438 C 38.484375 31.460938 38.507812 31.761719 38.683594 32.054688 L 40.589844 35.234375 C 40.710938 35.429688 40.753906 35.644531 40.726562 35.875 C 40.699219 36.105469 40.601562 36.304688 40.4375 36.464844 L 36.957031 39.949219 C 36.792969 40.113281 36.597656 40.207031 36.367188 40.238281 C 36.136719 40.265625 35.921875 40.21875 35.722656 40.097656 L 32.542969 38.191406 C 32.25 38.015625 31.949219 37.992188 31.636719 38.125 L 28.640625 39.367188 C 28.328125 39.496094 28.128906 39.726562 28.046875 40.054688 L 27.148438 43.652344 C 27.09375 43.875 26.972656 44.058594 26.789062 44.203125 C 26.605469 44.34375 26.398438 44.417969 26.167969 44.417969 L 21.246094 44.417969 C 21.015625 44.417969 20.808594 44.34375 20.625 44.203125 C 20.441406 44.0625 20.324219 43.875 20.265625 43.652344 L 19.367188 40.054688 C 19.285156 39.726562 19.085938 39.496094 18.773438 39.367188 L 15.777344 38.125 C 15.652344 38.074219 15.523438 38.046875 15.390625 38.046875 C 15.203125 38.046875 15.03125 38.09375 14.871094 38.191406 L 11.691406 40.097656 C 11.492188 40.21875 11.277344 40.265625 11.046875 40.238281 C 10.820312 40.207031 10.621094 40.113281 10.457031 39.949219 L 6.976562 36.464844 C 6.8125 36.304688 6.714844 36.105469 6.6875 35.875 C 6.660156 35.644531 6.707031 35.433594 6.824219 35.234375 L 8.734375 32.054688 C 8.90625 31.761719 8.929688 31.460938 8.800781 31.148438 L 7.558594 28.152344 C 7.429688 27.835938 7.199219 27.640625 6.871094 27.558594 L 3.273438 26.660156 C 3.046875 26.601562 2.863281 26.484375 2.722656 26.300781 C 2.578125 26.117188 2.507812 25.910156 2.507812 25.679688 L 2.507812 20.757812 C 2.507812 20.523438 2.578125 20.316406 2.722656 20.132812 C 2.863281 19.953125 3.046875 19.832031 3.273438 19.777344 L 6.871094 18.875 C 7.199219 18.796875 7.429688 18.597656 7.558594 18.285156 L 8.800781 15.285156 C 8.929688 14.972656 8.90625 14.671875 8.734375 14.378906 L 6.824219 11.203125 C 6.707031 11.003906 6.660156 10.789062 6.6875 10.558594 C 6.714844 10.328125 6.8125 10.132812 6.976562 9.96875 L 10.457031 6.488281 C 10.621094 6.324219 10.820312 6.226562 11.050781 6.199219 C 11.277344 6.171875 11.492188 6.214844 11.691406 6.335938 L 14.871094 8.242188 C 15.164062 8.417969 15.464844 8.441406 15.777344 8.308594 L 18.773438 7.070312 C 19.085938 6.9375 19.285156 6.710938 19.367188 6.382812 L 20.265625 2.785156 C 20.324219 2.558594 20.441406 2.375 20.625 2.230469 C 20.808594 2.089844 21.015625 2.019531 21.246094 2.019531 L 26.167969 2.019531 C 26.398438 2.019531 26.605469 2.089844 26.789062 2.230469 C 26.972656 2.375 27.089844 2.558594 27.148438 2.78125 L 28.046875 6.382812 C 28.128906 6.710938 28.328125 6.9375 28.640625 7.070312 L 31.636719 8.308594 C 31.949219 8.441406 32.25 8.417969 32.542969 8.242188 L 35.722656 6.335938 C 35.921875 6.214844 36.136719 6.171875 36.367188 6.199219 C 36.597656 6.226562 36.792969 6.324219 36.957031 6.488281 L 40.4375 9.96875 C 40.601562 10.132812 40.695312 10.328125 40.726562 10.558594 C 40.753906 10.789062 40.707031 11.003906 40.589844 11.203125 L 38.679688 14.378906 C 38.507812 14.671875 38.484375 14.972656 38.613281 15.285156 L 39.855469 18.285156 C 39.984375 18.597656 40.214844 18.796875 40.546875 18.875 L 44.140625 19.777344 C 44.367188 19.832031 44.550781 19.953125 44.691406 20.132812 C 44.835938 20.316406 44.90625 20.523438 44.90625 20.753906 Z M 44.90625 25.679688 " fill-opacity="1" fill-rule="nonzero"/></g><path fill="#ffffff" d="M 23.707031 12.113281 C 22.976562 12.113281 22.257812 12.183594 21.539062 12.328125 C 20.824219 12.46875 20.132812 12.679688 19.457031 12.957031 C 18.785156 13.238281 18.144531 13.578125 17.539062 13.984375 C 16.933594 14.390625 16.371094 14.851562 15.855469 15.367188 C 15.339844 15.882812 14.878906 16.441406 14.476562 17.046875 C 14.070312 17.65625 13.726562 18.292969 13.449219 18.96875 C 13.167969 19.640625 12.957031 20.335938 12.816406 21.050781 C 12.675781 21.765625 12.601562 22.488281 12.601562 23.21875 C 12.601562 23.945312 12.675781 24.667969 12.816406 25.382812 C 12.957031 26.097656 13.167969 26.792969 13.449219 27.464844 C 13.726562 28.140625 14.070312 28.78125 14.476562 29.386719 C 14.878906 29.992188 15.339844 30.554688 15.855469 31.070312 C 16.371094 31.585938 16.933594 32.046875 17.539062 32.449219 C 18.144531 32.855469 18.785156 33.195312 19.457031 33.476562 C 20.132812 33.753906 20.824219 33.964844 21.539062 34.109375 C 22.257812 34.25 22.976562 34.320312 23.707031 34.320312 C 24.4375 34.320312 25.160156 34.25 25.875 34.109375 C 26.589844 33.964844 27.28125 33.753906 27.957031 33.476562 C 28.628906 33.195312 29.269531 32.855469 29.875 32.449219 C 30.484375 32.046875 31.042969 31.585938 31.558594 31.070312 C 32.074219 30.554688 32.535156 29.992188 32.941406 29.386719 C 33.34375 28.78125 33.6875 28.140625 33.964844 27.464844 C 34.246094 26.792969 34.457031 26.097656 34.597656 25.382812 C 34.738281 24.667969 34.8125 23.945312 34.8125 23.21875 C 34.808594 22.488281 34.738281 21.765625 34.597656 21.050781 C 34.453125 20.335938 34.242188 19.644531 33.960938 18.96875 C 33.683594 18.296875 33.339844 17.65625 32.9375 17.050781 C 32.53125 16.445312 32.070312 15.886719 31.554688 15.371094 C 31.039062 14.855469 30.480469 14.394531 29.875 13.988281 C 29.265625 13.582031 28.628906 13.242188 27.953125 12.960938 C 27.28125 12.683594 26.585938 12.472656 25.871094 12.328125 C 25.15625 12.1875 24.4375 12.113281 23.707031 12.113281 Z M 23.707031 32.300781 C 23.109375 32.300781 22.519531 32.246094 21.933594 32.128906 C 21.351562 32.011719 20.78125 31.839844 20.230469 31.609375 C 19.679688 31.382812 19.15625 31.101562 18.660156 30.769531 C 18.164062 30.441406 17.703125 30.0625 17.28125 29.640625 C 16.859375 29.21875 16.484375 28.761719 16.152344 28.265625 C 15.820312 27.769531 15.542969 27.246094 15.3125 26.695312 C 15.085938 26.144531 14.914062 25.574219 14.796875 24.988281 C 14.679688 24.40625 14.621094 23.8125 14.621094 23.21875 C 14.621094 22.621094 14.679688 22.03125 14.796875 21.445312 C 14.914062 20.859375 15.085938 20.292969 15.3125 19.742188 C 15.542969 19.191406 15.820312 18.667969 16.152344 18.171875 C 16.484375 17.675781 16.859375 17.214844 17.28125 16.792969 C 17.703125 16.371094 18.164062 15.996094 18.660156 15.664062 C 19.15625 15.332031 19.679688 15.050781 20.230469 14.824219 C 20.78125 14.59375 21.351562 14.421875 21.933594 14.308594 C 22.519531 14.191406 23.109375 14.132812 23.707031 14.132812 C 24.304688 14.132812 24.894531 14.191406 25.480469 14.308594 C 26.066406 14.421875 26.632812 14.59375 27.183594 14.824219 C 27.734375 15.050781 28.257812 15.332031 28.753906 15.664062 C 29.25 15.996094 29.710938 16.371094 30.132812 16.792969 C 30.554688 17.214844 30.929688 17.675781 31.261719 18.171875 C 31.59375 18.667969 31.871094 19.191406 32.101562 19.742188 C 32.328125 20.292969 32.5 20.859375 32.617188 21.445312 C 32.734375 22.03125 32.792969 22.621094 32.792969 23.21875 C 32.792969 23.8125 32.734375 24.40625 32.617188 24.988281 C 32.5 25.574219 32.328125 26.140625 32.097656 26.691406 C 31.871094 27.242188 31.589844 27.765625 31.257812 28.261719 C 30.925781 28.757812 30.550781 29.21875 30.128906 29.636719 C 29.707031 30.058594 29.25 30.4375 28.753906 30.769531 C 28.257812 31.101562 27.734375 31.378906 27.183594 31.609375 C 26.632812 31.835938 26.0625 32.007812 25.480469 32.125 C 24.894531 32.242188 24.304688 32.300781 23.707031 32.300781 Z M 23.707031 32.300781 " fill-opacity="1" fill-rule="nonzero"/></svg>