<svg xmlns="http://www.w3.org/2000/svg" xmlns:xlink="http://www.w3.org/1999/xlink" width="50" zoomAndPan="magnify" viewBox="0 0 37.5 33.749999" height="45" preserveAspectRatio="xMidYMid meet" version="1.0"><defs><clipPath id="9eef9024bd"><path d="M 0 0.0976562 L 36.265625 0.0976562 L 36.265625 33.40625 L 0 33.40625 Z M 0 0.0976562 " clip-rule="nonzero"/></clipPath></defs><g clip-path="url(#9eef9024bd)"><path fill="#fffffe" d="M 35.46875 33.300781 L 0.984375 33.300781 C 0.445312 33.300781 0.0078125 32.863281 0.0078125 32.324219 L 0.0078125 1.074219 C 0.0078125 0.535156 0.445312 0.0976562 0.984375 0.0976562 L 35.46875 0.0976562 C 36.007812 0.0976562 36.441406 0.535156 36.441406 1.074219 L 36.441406 32.324219 C 36.441406 32.863281 36.007812 33.300781 35.46875 33.300781 Z M 1.960938 31.347656 L 34.492188 31.347656 L 34.492188 2.050781 L 1.960938 2.050781 Z M 1.960938 31.347656 " fill-opacity="1" fill-rule="nonzero"/></g><path fill="#fffffe" d="M 32.726562 7.925781 L 3.722656 7.925781 C 3.183594 7.925781 2.746094 7.492188 2.746094 6.953125 C 2.746094 6.414062 3.183594 5.976562 3.722656 5.976562 L 32.726562 5.976562 C 33.265625 5.976562 33.703125 6.414062 33.703125 6.953125 C 33.703125 7.492188 33.265625 7.925781 32.726562 7.925781 Z M 32.726562 7.925781 " fill-opacity="1" fill-rule="nonzero"/><path fill="#fffffe" d="M 32.726562 5.089844 L 28.277344 5.089844 C 27.738281 5.089844 27.300781 4.652344 27.300781 4.113281 C 27.300781 3.574219 27.738281 3.140625 28.277344 3.140625 L 32.726562 3.140625 C 33.265625 3.140625 33.703125 3.574219 33.703125 4.113281 C 33.703125 4.652344 33.265625 5.089844 32.726562 5.089844 Z M 32.726562 5.089844 " fill-opacity="1" fill-rule="nonzero"/><path fill="#fffffe" d="M 6.0625 5.089844 L 3.722656 5.089844 C 3.183594 5.089844 2.746094 4.652344 2.746094 4.113281 C 2.746094 3.574219 3.183594 3.140625 3.722656 3.140625 L 6.0625 3.140625 C 6.601562 3.140625 7.039062 3.574219 7.039062 4.113281 C 7.039062 4.652344 6.601562 5.089844 6.0625 5.089844 Z M 6.0625 5.089844 " fill-opacity="1" fill-rule="nonzero"/><path fill="#fffffe" d="M 12.5 25.449219 C 12.25 25.449219 12.003906 25.355469 11.8125 25.164062 L 6.808594 20.164062 C 6.429688 19.78125 6.429688 19.164062 6.808594 18.78125 L 11.8125 13.78125 C 12.191406 13.398438 12.808594 13.398438 13.191406 13.78125 C 13.574219 14.160156 13.574219 14.78125 13.191406 15.160156 L 8.878906 19.472656 L 13.191406 23.785156 C 13.574219 24.164062 13.574219 24.78125 13.191406 25.164062 C 13 25.355469 12.75 25.449219 12.5 25.449219 Z M 12.5 25.449219 " fill-opacity="1" fill-rule="nonzero"/><path fill="#fffffe" d="M 23.949219 25.78125 C 23.699219 25.78125 23.449219 25.6875 23.261719 25.496094 C 22.878906 25.113281 22.878906 24.496094 23.261719 24.117188 L 27.570312 19.804688 L 23.261719 15.492188 C 22.878906 15.113281 22.878906 14.492188 23.261719 14.113281 C 23.640625 13.730469 24.257812 13.730469 24.640625 14.113281 L 29.640625 19.113281 C 30.023438 19.496094 30.023438 20.113281 29.640625 20.496094 L 24.640625 25.496094 C 24.449219 25.6875 24.199219 25.78125 23.949219 25.78125 Z M 23.949219 25.78125 " fill-opacity="1" fill-rule="nonzero"/><path fill="#fffffe" d="M 15.894531 27.015625 C 15.785156 27.015625 15.671875 26.996094 15.5625 26.957031 C 15.054688 26.773438 14.792969 26.210938 14.980469 25.707031 L 19.636719 12.902344 C 19.824219 12.398438 20.382812 12.136719 20.890625 12.320312 C 21.394531 12.503906 21.65625 13.0625 21.472656 13.570312 L 16.8125 26.371094 C 16.667969 26.769531 16.292969 27.015625 15.894531 27.015625 Z M 15.894531 27.015625 " fill-opacity="1" fill-rule="nonzero"/></svg>