<svg xmlns="http://www.w3.org/2000/svg" xmlns:xlink="http://www.w3.org/1999/xlink" width="59" zoomAndPan="magnify" viewBox="0 0 44.25 36.000001" height="48" preserveAspectRatio="xMidYMid meet" version="1.0"><defs><clipPath id="d76e322009"><path d="M 4 26 L 10 26 L 10 34.296875 L 4 34.296875 Z M 4 26 " clip-rule="nonzero"/></clipPath><clipPath id="19e5ffe845"><path d="M 19 26 L 26 26 L 26 34.296875 L 19 34.296875 Z M 19 26 " clip-rule="nonzero"/></clipPath><clipPath id="2a33eae473"><path d="M 11 22 L 18 22 L 18 34.296875 L 11 34.296875 Z M 11 22 " clip-rule="nonzero"/></clipPath><clipPath id="f974850915"><path d="M 27 19 L 33 19 L 33 34.296875 L 27 34.296875 Z M 27 19 " clip-rule="nonzero"/></clipPath><clipPath id="28814d7375"><path d="M 34 14 L 41 14 L 41 34.296875 L 34 34.296875 Z M 34 14 " clip-rule="nonzero"/></clipPath><clipPath id="7f0336a504"><path d="M 0.234375 0 L 43.289062 0 L 43.289062 28 L 0.234375 28 Z M 0.234375 0 " clip-rule="nonzero"/></clipPath></defs><g clip-path="url(#d76e322009)"><path fill="#ffffff" d="M 9.6875 26.386719 C 9.6875 26.347656 9.667969 26.320312 9.628906 26.304688 C 9.59375 26.289062 9.558594 26.296875 9.53125 26.324219 L 4.132812 31.726562 C 4.113281 31.742188 4.105469 31.765625 4.105469 31.789062 L 4.105469 34.132812 C 4.105469 34.261719 4.167969 34.324219 4.296875 34.324219 L 9.496094 34.324219 C 9.621094 34.324219 9.6875 34.261719 9.6875 34.132812 Z M 9.6875 26.386719 " fill-opacity="1" fill-rule="nonzero"/></g><g clip-path="url(#19e5ffe845)"><path fill="#ffffff" d="M 25.105469 26.863281 C 25.105469 26.820312 25.085938 26.792969 25.050781 26.777344 C 25.011719 26.761719 24.980469 26.769531 24.953125 26.796875 L 21.558594 30.191406 C 21.515625 30.234375 21.472656 30.234375 21.433594 30.191406 L 19.679688 28.4375 C 19.652344 28.410156 19.617188 28.402344 19.582031 28.417969 C 19.542969 28.433594 19.523438 28.460938 19.523438 28.503906 L 19.527344 34.132812 C 19.527344 34.261719 19.589844 34.324219 19.71875 34.324219 L 24.914062 34.324219 C 25.042969 34.324219 25.105469 34.261719 25.105469 34.132812 Z M 25.105469 26.863281 " fill-opacity="1" fill-rule="nonzero"/></g><g clip-path="url(#2a33eae473)"><path fill="#ffffff" d="M 17.394531 26.191406 C 17.394531 26.167969 17.386719 26.148438 17.371094 26.128906 L 13.753906 22.511719 C 13.695312 22.457031 13.628906 22.425781 13.546875 22.425781 C 13.46875 22.425781 13.398438 22.457031 13.34375 22.511719 L 11.839844 24.015625 C 11.824219 24.03125 11.816406 24.050781 11.816406 24.078125 L 11.816406 34.132812 C 11.816406 34.261719 11.878906 34.324219 12.007812 34.324219 L 17.203125 34.324219 C 17.332031 34.324219 17.398438 34.261719 17.398438 34.132812 Z M 17.394531 26.191406 " fill-opacity="1" fill-rule="nonzero"/></g><g clip-path="url(#f974850915)"><path fill="#ffffff" d="M 32.816406 19.152344 C 32.816406 19.109375 32.796875 19.082031 32.761719 19.066406 C 32.722656 19.050781 32.691406 19.058594 32.664062 19.085938 L 27.261719 24.488281 C 27.246094 24.503906 27.234375 24.527344 27.234375 24.550781 L 27.234375 34.132812 C 27.234375 34.261719 27.300781 34.324219 27.429688 34.324219 L 32.625 34.324219 C 32.753906 34.324219 32.816406 34.261719 32.816406 34.132812 Z M 32.816406 19.152344 " fill-opacity="1" fill-rule="nonzero"/></g><g clip-path="url(#28814d7375)"><path fill="#ffffff" d="M 40.527344 17.890625 C 40.527344 17.863281 40.519531 17.84375 40.5 17.824219 L 37.417969 14.742188 C 37.359375 14.6875 37.292969 14.65625 37.210938 14.65625 C 37.132812 14.65625 37.0625 14.6875 37.007812 14.742188 L 34.972656 16.777344 C 34.953125 16.792969 34.945312 16.816406 34.945312 16.839844 L 34.945312 34.132812 C 34.945312 34.261719 35.011719 34.324219 35.136719 34.324219 L 40.335938 34.324219 C 40.464844 34.324219 40.527344 34.261719 40.527344 34.132812 Z M 40.527344 17.890625 " fill-opacity="1" fill-rule="nonzero"/></g><g clip-path="url(#7f0336a504)"><path fill="#ffffff" d="M 42.808594 0.0195312 L 30.355469 2.417969 C 30.246094 2.4375 30.171875 2.503906 30.140625 2.609375 C 30.109375 2.714844 30.132812 2.808594 30.210938 2.886719 L 33.265625 5.945312 L 21.699219 17.507812 C 21.644531 17.566406 21.574219 17.59375 21.496094 17.59375 C 21.414062 17.59375 21.347656 17.566406 21.289062 17.507812 L 13.8125 10.03125 C 13.738281 9.960938 13.652344 9.921875 13.546875 9.921875 C 13.445312 9.921875 13.355469 9.960938 13.28125 10.03125 L 0.34375 22.972656 C 0.269531 23.046875 0.234375 23.132812 0.234375 23.238281 C 0.234375 23.34375 0.269531 23.429688 0.34375 23.503906 L 3.757812 26.917969 C 3.832031 26.992188 3.921875 27.027344 4.023438 27.027344 C 4.128906 27.027344 4.214844 26.992188 4.289062 26.917969 L 13.34375 17.867188 C 13.398438 17.808594 13.46875 17.78125 13.546875 17.78125 C 13.628906 17.78125 13.695312 17.808594 13.753906 17.867188 L 21.230469 25.34375 C 21.304688 25.414062 21.390625 25.453125 21.496094 25.453125 C 21.597656 25.453125 21.6875 25.414062 21.761719 25.34375 L 37.210938 9.890625 L 40.269531 12.945312 C 40.347656 13.023438 40.441406 13.046875 40.546875 13.015625 C 40.652344 12.980469 40.71875 12.910156 40.738281 12.800781 L 43.136719 0.347656 C 43.15625 0.25 43.128906 0.167969 43.058594 0.0976562 C 42.988281 0.0273438 42.90625 0.00390625 42.808594 0.0195312 Z M 42.808594 0.0195312 " fill-opacity="1" fill-rule="nonzero"/></g></svg>