<svg xmlns="http://www.w3.org/2000/svg" xmlns:xlink="http://www.w3.org/1999/xlink" width="59" zoomAndPan="magnify" viewBox="0 0 44.25 52.499999" height="70" preserveAspectRatio="xMidYMid meet" version="1.0"><defs><clipPath id="6e52e3f715"><path d="M 0 0.191406 L 43 0.191406 L 43 51.078125 L 0 51.078125 Z M 0 0.191406 " clip-rule="nonzero"/></clipPath></defs><g clip-path="url(#6e52e3f715)"><path fill="#fffffe" d="M 6.253906 51.359375 L 37.003906 51.359375 C 37.25 51.359375 37.449219 51.160156 37.449219 50.910156 L 37.449219 43.925781 L 41.03125 43.925781 C 42.101562 43.925781 42.972656 43.054688 42.972656 41.984375 L 42.972656 4.378906 C 42.972656 4.378906 42.972656 4.378906 42.972656 4.375 L 42.972656 2.105469 C 42.972656 1.039062 42.101562 0.167969 41.03125 0.167969 L 2.222656 0.167969 C 1.15625 0.167969 0.285156 1.039062 0.285156 2.105469 L 0.285156 4.375 C 0.285156 4.375 0.285156 4.378906 0.285156 4.378906 L 0.285156 41.988281 C 0.285156 43.058594 1.15625 43.925781 2.226562 43.925781 L 5.804688 43.925781 L 5.804688 50.914062 C 5.804688 51.160156 6.007812 51.359375 6.253906 51.359375 Z M 37 28.953125 C 36.4375 28.953125 35.90625 28.734375 35.503906 28.328125 C 35.105469 27.933594 34.886719 27.402344 34.886719 26.839844 L 34.886719 25.273438 L 39.117188 25.273438 L 39.117188 26.839844 C 39.117188 28.007812 38.167969 28.953125 37 28.953125 Z M 31.878906 28.953125 C 31.3125 28.953125 30.78125 28.734375 30.378906 28.328125 C 29.980469 27.933594 29.761719 27.402344 29.761719 26.839844 L 29.761719 25.273438 L 33.992188 25.273438 L 33.992188 26.839844 C 33.992188 28.007812 33.042969 28.953125 31.878906 28.953125 Z M 9.265625 25.273438 L 13.496094 25.273438 L 13.496094 26.839844 C 13.496094 28.007812 12.542969 28.953125 11.378906 28.953125 C 10.816406 28.953125 10.285156 28.734375 9.878906 28.328125 C 9.484375 27.933594 9.265625 27.402344 9.265625 26.839844 Z M 14.386719 25.273438 L 18.617188 25.273438 L 18.617188 26.839844 C 18.617188 28.007812 17.667969 28.953125 16.503906 28.953125 C 15.941406 28.953125 15.40625 28.734375 15.003906 28.328125 C 14.605469 27.933594 14.386719 27.402344 14.386719 26.839844 Z M 19.511719 25.273438 L 23.742188 25.273438 L 23.742188 26.839844 C 23.742188 28.007812 22.792969 28.953125 21.628906 28.953125 C 21.066406 28.953125 20.53125 28.734375 20.128906 28.328125 C 19.730469 27.933594 19.511719 27.402344 19.511719 26.839844 Z M 24.636719 25.273438 L 28.867188 25.273438 L 28.867188 26.839844 C 28.867188 28.007812 27.917969 28.953125 26.753906 28.953125 C 26.1875 28.953125 25.65625 28.734375 25.253906 28.328125 C 24.855469 27.933594 24.636719 27.402344 24.636719 26.839844 Z M 31.808594 16.921875 L 34.277344 16.921875 C 34.535156 16.921875 34.773438 17.0625 34.898438 17.289062 L 38.808594 24.375 L 34.742188 24.375 Z M 30.84375 16.921875 L 33.78125 24.375 L 29.667969 24.375 L 27.90625 16.921875 Z M 26.988281 16.921875 L 28.75 24.375 L 24.601562 24.375 L 24.015625 16.921875 Z M 23.121094 16.921875 L 23.707031 24.375 L 19.550781 24.375 L 20.136719 16.921875 Z M 18.652344 24.375 L 14.507812 24.375 L 16.269531 16.921875 L 19.238281 16.921875 Z M 13.589844 24.375 L 9.472656 24.375 L 12.410156 16.921875 L 15.347656 16.921875 L 13.585938 24.375 Z M 8.511719 24.375 L 4.449219 24.375 L 8.359375 17.289062 C 8.484375 17.0625 8.722656 16.921875 8.980469 16.921875 L 11.449219 16.921875 Z M 4.140625 25.273438 L 8.371094 25.273438 L 8.371094 26.839844 C 8.371094 28.007812 7.417969 28.953125 6.253906 28.953125 C 5.691406 28.953125 5.160156 28.734375 4.753906 28.328125 C 4.359375 27.933594 4.140625 27.402344 4.140625 26.839844 Z M 9.949219 50.464844 L 9.949219 33.457031 L 18.636719 33.457031 L 18.636719 50.464844 Z M 36.554688 50.464844 L 19.53125 50.464844 L 19.53125 33.011719 C 19.53125 32.761719 19.328125 32.5625 19.082031 32.5625 L 9.5 32.5625 C 9.253906 32.5625 9.050781 32.761719 9.050781 33.011719 L 9.050781 50.464844 L 6.699219 50.464844 L 6.699219 29.816406 C 6.726562 29.8125 6.75 29.800781 6.773438 29.796875 C 6.910156 29.773438 7.042969 29.730469 7.175781 29.6875 C 7.242188 29.667969 7.3125 29.652344 7.378906 29.625 C 7.542969 29.558594 7.695312 29.476562 7.84375 29.382812 C 7.871094 29.367188 7.902344 29.355469 7.925781 29.335938 C 8.097656 29.222656 8.253906 29.089844 8.398438 28.945312 C 8.441406 28.898438 8.476562 28.847656 8.519531 28.800781 C 8.613281 28.691406 8.703125 28.582031 8.78125 28.460938 C 8.789062 28.445312 8.804688 28.433594 8.816406 28.417969 C 8.824219 28.429688 8.835938 28.441406 8.84375 28.453125 C 8.960938 28.632812 9.089844 28.804688 9.246094 28.960938 C 9.820312 29.53125 10.574219 29.847656 11.378906 29.847656 C 11.5625 29.847656 11.742188 29.824219 11.917969 29.792969 C 11.960938 29.785156 12 29.777344 12.042969 29.769531 C 12.214844 29.730469 12.378906 29.679688 12.539062 29.613281 C 12.554688 29.609375 12.566406 29.597656 12.582031 29.59375 C 12.726562 29.527344 12.867188 29.453125 13 29.367188 C 13.035156 29.34375 13.066406 29.324219 13.101562 29.300781 C 13.238281 29.203125 13.367188 29.097656 13.488281 28.976562 C 13.507812 28.960938 13.523438 28.941406 13.539062 28.921875 C 13.644531 28.8125 13.742188 28.695312 13.828125 28.574219 C 13.851562 28.542969 13.875 28.511719 13.894531 28.480469 C 13.910156 28.460938 13.925781 28.441406 13.941406 28.417969 C 13.949219 28.429688 13.960938 28.441406 13.96875 28.453125 C 14.085938 28.632812 14.214844 28.804688 14.371094 28.960938 C 14.945312 29.53125 15.699219 29.847656 16.503906 29.847656 C 16.6875 29.847656 16.867188 29.824219 17.042969 29.792969 C 17.085938 29.785156 17.125 29.777344 17.167969 29.765625 C 17.339844 29.730469 17.503906 29.679688 17.664062 29.613281 C 17.679688 29.605469 17.691406 29.597656 17.707031 29.59375 C 17.851562 29.527344 17.992188 29.449219 18.125 29.363281 C 18.160156 29.34375 18.191406 29.320312 18.226562 29.300781 C 18.363281 29.203125 18.496094 29.097656 18.613281 28.976562 C 18.632812 28.960938 18.648438 28.941406 18.664062 28.921875 C 18.769531 28.8125 18.867188 28.695312 18.953125 28.574219 C 18.976562 28.542969 19 28.511719 19.019531 28.480469 C 19.035156 28.457031 19.050781 28.4375 19.066406 28.414062 C 19.074219 28.429688 19.085938 28.4375 19.09375 28.453125 C 19.210938 28.632812 19.339844 28.804688 19.496094 28.960938 C 20.070312 29.53125 20.824219 29.847656 21.628906 29.847656 C 21.8125 29.847656 21.992188 29.824219 22.167969 29.792969 C 22.210938 29.785156 22.25 29.777344 22.292969 29.765625 C 22.460938 29.726562 22.628906 29.679688 22.789062 29.613281 C 22.800781 29.605469 22.8125 29.597656 22.828125 29.59375 C 22.976562 29.527344 23.117188 29.449219 23.25 29.363281 C 23.285156 29.34375 23.316406 29.320312 23.347656 29.300781 C 23.488281 29.203125 23.621094 29.09375 23.738281 28.976562 C 23.757812 28.960938 23.769531 28.941406 23.785156 28.925781 C 23.894531 28.8125 23.988281 28.695312 24.078125 28.570312 C 24.097656 28.539062 24.121094 28.511719 24.140625 28.480469 C 24.15625 28.457031 24.175781 28.4375 24.1875 28.414062 C 24.195312 28.429688 24.210938 28.4375 24.21875 28.453125 C 24.332031 28.632812 24.464844 28.804688 24.621094 28.957031 C 25.191406 29.53125 25.949219 29.84375 26.753906 29.84375 C 26.9375 29.84375 27.117188 29.824219 27.292969 29.789062 C 27.335938 29.785156 27.375 29.777344 27.414062 29.765625 C 27.585938 29.726562 27.753906 29.679688 27.914062 29.609375 C 27.925781 29.605469 27.9375 29.597656 27.953125 29.59375 C 28.101562 29.527344 28.242188 29.449219 28.375 29.363281 C 28.410156 29.339844 28.441406 29.320312 28.472656 29.300781 C 28.609375 29.203125 28.742188 29.09375 28.863281 28.972656 C 28.878906 28.957031 28.894531 28.941406 28.910156 28.921875 C 29.015625 28.8125 29.113281 28.695312 29.203125 28.570312 C 29.222656 28.539062 29.246094 28.511719 29.265625 28.480469 C 29.28125 28.457031 29.296875 28.4375 29.3125 28.414062 C 29.320312 28.425781 29.332031 28.4375 29.34375 28.453125 C 29.457031 28.632812 29.589844 28.800781 29.746094 28.957031 C 30.316406 29.53125 31.074219 29.84375 31.875 29.84375 C 32.0625 29.84375 32.242188 29.820312 32.417969 29.789062 C 32.457031 29.78125 32.5 29.773438 32.539062 29.765625 C 32.710938 29.726562 32.878906 29.675781 33.035156 29.609375 C 33.050781 29.605469 33.0625 29.597656 33.074219 29.589844 C 33.222656 29.527344 33.363281 29.449219 33.5 29.359375 C 33.53125 29.339844 33.566406 29.320312 33.597656 29.296875 C 33.734375 29.199219 33.867188 29.09375 33.988281 28.972656 C 34.003906 28.957031 34.019531 28.941406 34.035156 28.921875 C 34.140625 28.8125 34.238281 28.695312 34.328125 28.570312 C 34.347656 28.539062 34.371094 28.507812 34.390625 28.476562 C 34.40625 28.457031 34.421875 28.4375 34.4375 28.414062 C 34.445312 28.425781 34.457031 28.4375 34.464844 28.449219 C 34.582031 28.628906 34.714844 28.800781 34.867188 28.957031 C 35 29.089844 35.144531 29.203125 35.292969 29.304688 C 35.339844 29.339844 35.390625 29.363281 35.4375 29.394531 C 35.546875 29.460938 35.65625 29.519531 35.769531 29.574219 C 35.828125 29.597656 35.886719 29.621094 35.945312 29.644531 C 36.058594 29.6875 36.175781 29.722656 36.292969 29.75 C 36.355469 29.765625 36.414062 29.78125 36.472656 29.792969 C 36.5 29.796875 36.527344 29.808594 36.554688 29.8125 Z M 42.078125 2.105469 L 42.078125 3.925781 L 22.074219 3.925781 L 22.074219 1.0625 L 41.03125 1.0625 C 41.609375 1.0625 42.078125 1.53125 42.078125 2.105469 Z M 2.222656 1.0625 L 21.179688 1.0625 L 21.179688 3.925781 L 1.179688 3.925781 L 1.179688 2.105469 C 1.179688 1.53125 1.648438 1.0625 2.222656 1.0625 Z M 2.226562 43.03125 C 1.648438 43.03125 1.179688 42.5625 1.179688 41.984375 L 1.179688 4.824219 L 42.074219 4.824219 L 42.074219 41.984375 C 42.074219 42.5625 41.605469 43.03125 41.03125 43.03125 L 37.449219 43.03125 L 37.449219 29.804688 C 38.894531 29.585938 40.011719 28.34375 40.011719 26.839844 L 40.011719 24.824219 C 40.011719 24.753906 39.988281 24.6875 39.960938 24.628906 C 39.957031 24.621094 39.957031 24.613281 39.953125 24.605469 L 35.679688 16.855469 C 35.398438 16.34375 34.859375 16.027344 34.273438 16.027344 L 8.980469 16.027344 C 8.398438 16.027344 7.859375 16.34375 7.578125 16.855469 L 3.300781 24.605469 C 3.296875 24.613281 3.300781 24.621094 3.296875 24.628906 C 3.265625 24.6875 3.246094 24.753906 3.246094 24.824219 L 3.246094 26.839844 C 3.246094 27.640625 3.558594 28.394531 4.121094 28.960938 C 4.585938 29.425781 5.175781 29.710938 5.804688 29.804688 L 5.804688 43.03125 Z M 2.226562 43.03125 " fill-opacity="1" fill-rule="nonzero"/></g><path fill="#fffffe" d="M 33.757812 32.5625 L 22.445312 32.5625 C 22.199219 32.5625 22 32.761719 22 33.007812 L 22 45.453125 C 22 45.699219 22.199219 45.898438 22.445312 45.898438 L 33.757812 45.898438 C 34.003906 45.898438 34.203125 45.699219 34.203125 45.453125 L 34.203125 33.007812 C 34.203125 32.761719 34.003906 32.5625 33.757812 32.5625 Z M 33.308594 45.007812 L 22.890625 45.007812 L 22.890625 33.457031 L 33.308594 33.457031 Z M 33.308594 45.007812 " fill-opacity="1" fill-rule="nonzero"/></svg>