<svg xmlns="http://www.w3.org/2000/svg" xmlns:xlink="http://www.w3.org/1999/xlink" width="175" zoomAndPan="magnify" viewBox="0 0 131.25 52.499999" height="70" preserveAspectRatio="xMidYMid meet" version="1.0"><defs><g/><clipPath id="e7a6d482ce"><path d="M 3.160156 5.144531 L 44.6875 5.144531 L 44.6875 46.671875 L 3.160156 46.671875 Z M 3.160156 5.144531 " clip-rule="nonzero"/></clipPath><clipPath id="0f621b7003"><path d="M 23.921875 5.144531 C 12.453125 5.144531 3.160156 14.4375 3.160156 25.90625 C 3.160156 37.375 12.453125 46.671875 23.921875 46.671875 C 35.390625 46.671875 44.6875 37.375 44.6875 25.90625 C 44.6875 14.4375 35.390625 5.144531 23.921875 5.144531 Z M 23.921875 5.144531 " clip-rule="nonzero"/></clipPath><clipPath id="b3b5b80a19"><path d="M 0.160156 0.144531 L 41.6875 0.144531 L 41.6875 41.671875 L 0.160156 41.671875 Z M 0.160156 0.144531 " clip-rule="nonzero"/></clipPath><clipPath id="9f95719924"><path d="M 20.921875 0.144531 C 9.453125 0.144531 0.160156 9.4375 0.160156 20.90625 C 0.160156 32.375 9.453125 41.671875 20.921875 41.671875 C 32.390625 41.671875 41.6875 32.375 41.6875 20.90625 C 41.6875 9.4375 32.390625 0.144531 20.921875 0.144531 Z M 20.921875 0.144531 " clip-rule="nonzero"/></clipPath><clipPath id="89540db080"><rect x="0" width="42" y="0" height="42"/></clipPath><clipPath id="bbe13fac07"><rect x="0" width="28" y="0" height="31"/></clipPath></defs><g clip-path="url(#e7a6d482ce)"><g clip-path="url(#0f621b7003)"><g transform="matrix(1, 0, 0, 1, 3, 5)"><g clip-path="url(#89540db080)"><g clip-path="url(#b3b5b80a19)"><g clip-path="url(#9f95719924)"><path fill="#7ed957" d="M 0.160156 0.144531 L 41.6875 0.144531 L 41.6875 41.671875 L 0.160156 41.671875 Z M 0.160156 0.144531 " fill-opacity="1" fill-rule="nonzero"/></g></g></g></g></g></g><g transform="matrix(1, 0, 0, 1, 10, 10)"><g clip-path="url(#bbe13fac07)"><g fill="#ffffff" fill-opacity="1"><g transform="translate(0.801474, 23.016827)"><g><path d="M 10.578125 0 L 2.21875 0 L 2.21875 -19.921875 L 25.125 -19.921875 L 25.125 -15 L 10.578125 -15 L 10.578125 -11.875 L 22.875 -11.875 L 22.875 -8.046875 L 10.578125 -8.046875 Z M 10.578125 0 "/></g></g></g></g></g><g fill="#ffffff" fill-opacity="1"><g transform="translate(27.944015, 39.192027)"><g><path d="M 9.921875 -1.75 C 9.046875 -0.46875 7.742188 0.171875 6.015625 0.171875 C 4.441406 0.171875 3.164062 -0.367188 2.1875 -1.453125 C 1.21875 -2.535156 0.734375 -3.867188 0.734375 -5.453125 C 0.734375 -7.035156 1.21875 -8.363281 2.1875 -9.4375 C 3.164062 -10.53125 4.476562 -11.078125 6.125 -11.078125 C 7.769531 -11.078125 9.035156 -10.429688 9.921875 -9.140625 L 9.921875 -10.90625 L 11.546875 -10.90625 L 11.546875 0 L 9.921875 0 Z M 6.234375 -1.3125 C 7.410156 -1.3125 8.34375 -1.71875 9.03125 -2.53125 C 9.675781 -3.300781 10 -4.273438 10 -5.453125 C 10 -6.628906 9.675781 -7.601562 9.03125 -8.375 C 8.34375 -9.1875 7.410156 -9.59375 6.234375 -9.59375 C 5.066406 -9.59375 4.125 -9.1875 3.40625 -8.375 C 2.71875 -7.601562 2.375 -6.628906 2.375 -5.453125 C 2.375 -4.273438 2.71875 -3.300781 3.40625 -2.53125 C 4.125 -1.71875 5.066406 -1.3125 6.234375 -1.3125 Z M 6.234375 -1.3125 "/></g></g></g><g fill="#ffffff" fill-opacity="1"><g transform="translate(40.908215, 39.192027)"><g><path d="M 7.171875 -11.078125 L 7.171875 -9.4375 L 6.96875 -9.4375 C 5.789062 -9.4375 4.832031 -8.960938 4.09375 -8.015625 C 3.394531 -7.117188 3.046875 -6.046875 3.046875 -4.796875 L 3.046875 0 L 1.421875 0 L 1.421875 -10.90625 L 3.046875 -10.90625 L 3.046875 -8.21875 C 3.398438 -9.351562 4.15625 -10.1875 5.3125 -10.71875 C 5.789062 -10.957031 6.375 -11.078125 7.0625 -11.078125 Z M 7.171875 -11.078125 "/></g></g></g><g fill="#ffffff" fill-opacity="1"><g transform="translate(48.425269, 39.192027)"><g><path d="M 3.046875 -9.234375 C 3.773438 -10.460938 4.878906 -11.078125 6.359375 -11.078125 C 7.085938 -11.078125 7.757812 -10.882812 8.375 -10.5 C 9 -10.113281 9.484375 -9.570312 9.828125 -8.875 C 10.328125 -9.789062 11.097656 -10.441406 12.140625 -10.828125 C 12.554688 -10.992188 13.03125 -11.078125 13.5625 -11.078125 C 14.09375 -11.078125 14.601562 -10.96875 15.09375 -10.75 C 15.582031 -10.539062 16.015625 -10.242188 16.390625 -9.859375 C 17.203125 -8.984375 17.609375 -7.890625 17.609375 -6.578125 L 17.609375 0 L 15.984375 0 L 15.984375 -6.546875 C 15.984375 -7.441406 15.726562 -8.179688 15.21875 -8.765625 C 14.707031 -9.316406 14.0625 -9.59375 13.28125 -9.59375 C 12.445312 -9.59375 11.753906 -9.320312 11.203125 -8.78125 C 10.617188 -8.226562 10.328125 -7.472656 10.328125 -6.515625 L 10.328125 0 L 8.703125 0 L 8.703125 -6.546875 C 8.703125 -7.441406 8.445312 -8.179688 7.9375 -8.765625 C 7.425781 -9.316406 6.78125 -9.59375 6 -9.59375 C 5.164062 -9.59375 4.472656 -9.320312 3.921875 -8.78125 C 3.335938 -8.226562 3.046875 -7.472656 3.046875 -6.515625 L 3.046875 0 L 1.421875 0 L 1.421875 -10.90625 L 3.046875 -10.90625 Z M 3.046875 -9.234375 "/></g></g></g><g fill="#ffffff" fill-opacity="1"><g transform="translate(67.33775, 39.192027)"><g><path d="M 9.921875 -1.75 C 9.046875 -0.46875 7.742188 0.171875 6.015625 0.171875 C 4.441406 0.171875 3.164062 -0.367188 2.1875 -1.453125 C 1.21875 -2.535156 0.734375 -3.867188 0.734375 -5.453125 C 0.734375 -7.035156 1.21875 -8.363281 2.1875 -9.4375 C 3.164062 -10.53125 4.476562 -11.078125 6.125 -11.078125 C 7.769531 -11.078125 9.035156 -10.429688 9.921875 -9.140625 L 9.921875 -10.90625 L 11.546875 -10.90625 L 11.546875 0 L 9.921875 0 Z M 6.234375 -1.3125 C 7.410156 -1.3125 8.34375 -1.71875 9.03125 -2.53125 C 9.675781 -3.300781 10 -4.273438 10 -5.453125 C 10 -6.628906 9.675781 -7.601562 9.03125 -8.375 C 8.34375 -9.1875 7.410156 -9.59375 6.234375 -9.59375 C 5.066406 -9.59375 4.125 -9.1875 3.40625 -8.375 C 2.71875 -7.601562 2.375 -6.628906 2.375 -5.453125 C 2.375 -4.273438 2.71875 -3.300781 3.40625 -2.53125 C 4.125 -1.71875 5.066406 -1.3125 6.234375 -1.3125 Z M 6.234375 -1.3125 "/></g></g></g><g fill="#ffffff" fill-opacity="1"><g transform="translate(78.820228, 39.192027)"><g><path d="M 12.015625 -12.859375 L 6.96875 -12.859375 L 6.96875 0 L 5.34375 0 L 5.34375 -12.859375 L 0.3125 -12.859375 L 0.3125 -14.421875 L 12.015625 -14.421875 Z M 12.015625 -12.859375 "/></g></g></g><g fill="#ffffff" fill-opacity="1"><g transform="translate(88.995343, 39.192027)"><g><path d="M 6.28125 -1.3125 C 7.75 -1.3125 8.800781 -1.921875 9.4375 -3.140625 L 11.21875 -3.140625 C 10.84375 -2.148438 10.242188 -1.347656 9.421875 -0.734375 C 8.609375 -0.128906 7.550781 0.171875 6.25 0.171875 C 4.613281 0.171875 3.28125 -0.367188 2.25 -1.453125 C 1.238281 -2.515625 0.734375 -3.847656 0.734375 -5.453125 C 0.734375 -7.066406 1.21875 -8.394531 2.1875 -9.4375 C 3.195312 -10.53125 4.515625 -11.078125 6.140625 -11.078125 C 7.773438 -11.078125 9.097656 -10.53125 10.109375 -9.4375 C 11.066406 -8.394531 11.546875 -7.066406 11.546875 -5.453125 L 11.546875 -4.796875 L 2.421875 -4.796875 C 2.535156 -3.796875 2.9375 -2.96875 3.625 -2.3125 C 4.320312 -1.644531 5.207031 -1.3125 6.28125 -1.3125 Z M 6.140625 -9.59375 C 5.140625 -9.59375 4.300781 -9.28125 3.625 -8.65625 C 2.976562 -8.0625 2.582031 -7.285156 2.4375 -6.328125 L 9.859375 -6.328125 C 9.710938 -7.285156 9.316406 -8.0625 8.671875 -8.65625 C 7.992188 -9.28125 7.148438 -9.59375 6.140625 -9.59375 Z M 6.140625 -9.59375 "/></g></g></g><g fill="#ffffff" fill-opacity="1"><g transform="translate(101.131575, 39.192027)"><g><path d="M 6.453125 -1.3125 C 7.148438 -1.3125 7.765625 -1.503906 8.296875 -1.890625 C 8.835938 -2.285156 9.234375 -2.796875 9.484375 -3.421875 L 11.25 -3.421875 C 10.914062 -2.347656 10.304688 -1.484375 9.421875 -0.828125 C 8.484375 -0.160156 7.378906 0.171875 6.109375 0.171875 C 4.503906 0.171875 3.203125 -0.367188 2.203125 -1.453125 C 1.222656 -2.515625 0.734375 -3.847656 0.734375 -5.453125 C 0.734375 -7.046875 1.222656 -8.375 2.203125 -9.4375 C 3.203125 -10.53125 4.503906 -11.078125 6.109375 -11.078125 C 7.378906 -11.078125 8.484375 -10.738281 9.421875 -10.0625 C 10.304688 -9.414062 10.914062 -8.550781 11.25 -7.46875 L 9.484375 -7.46875 C 9.234375 -8.09375 8.835938 -8.601562 8.296875 -9 C 7.765625 -9.394531 7.148438 -9.59375 6.453125 -9.59375 C 5.753906 -9.59375 5.160156 -9.484375 4.671875 -9.265625 C 4.179688 -9.046875 3.769531 -8.75 3.4375 -8.375 C 2.726562 -7.582031 2.375 -6.609375 2.375 -5.453125 C 2.375 -4.285156 2.726562 -3.3125 3.4375 -2.53125 C 4.164062 -1.71875 5.171875 -1.3125 6.453125 -1.3125 Z M 6.453125 -1.3125 "/></g></g></g><g fill="#ffffff" fill-opacity="1"><g transform="translate(112.984563, 39.192027)"><g><path d="M 3.046875 -15.265625 L 3.046875 -9.203125 C 3.441406 -9.722656 3.921875 -10.164062 4.484375 -10.53125 C 5.054688 -10.894531 5.703125 -11.078125 6.421875 -11.078125 C 7.148438 -11.078125 7.773438 -10.972656 8.296875 -10.765625 C 8.828125 -10.566406 9.285156 -10.265625 9.671875 -9.859375 C 10.578125 -8.960938 11.03125 -7.789062 11.03125 -6.34375 L 11.03125 0 L 9.390625 0 L 9.390625 -6.296875 C 9.390625 -7.296875 9.101562 -8.09375 8.53125 -8.6875 C 7.96875 -9.289062 7.238281 -9.59375 6.34375 -9.59375 C 5.425781 -9.59375 4.648438 -9.285156 4.015625 -8.671875 C 3.367188 -8.046875 3.046875 -7.25 3.046875 -6.28125 L 3.046875 0 L 1.421875 0 L 1.421875 -15.265625 Z M 3.046875 -15.265625 "/></g></g></g></svg>