<svg xmlns="http://www.w3.org/2000/svg" xmlns:xlink="http://www.w3.org/1999/xlink" width="25" zoomAndPan="magnify" viewBox="0 0 18.75 15.75" height="21" preserveAspectRatio="xMidYMid meet" version="1.0"><defs><clipPath id="8e5d014fc8"><path d="M 0.0234375 0 L 15 0 L 15 14.765625 L 0.0234375 14.765625 Z M 0.0234375 0 " clip-rule="nonzero"/></clipPath><clipPath id="21e82b6080"><path d="M 3 0 L 18.480469 0 L 18.480469 14.765625 L 3 14.765625 Z M 3 0 " clip-rule="nonzero"/></clipPath></defs><g clip-path="url(#8e5d014fc8)"><path fill="#000000" d="M 14.789062 7.097656 L 0.125 0.0117188 L 4.300781 7.351562 L 0.0546875 14.765625 Z M 14.789062 7.097656 " fill-opacity="1" fill-rule="nonzero"/></g><g clip-path="url(#21e82b6080)"><path fill="#000000" d="M 3.871094 14.753906 C 3.832031 14.753906 3.792969 14.742188 3.761719 14.710938 C 3.71875 14.664062 3.707031 14.59375 3.738281 14.535156 L 7.847656 7.347656 L 3.8125 0.234375 C 3.777344 0.175781 3.789062 0.109375 3.832031 0.0585938 C 3.878906 0.0117188 3.945312 0 4.007812 0.03125 L 18.363281 6.972656 C 18.414062 6.996094 18.449219 7.042969 18.449219 7.097656 C 18.449219 7.152344 18.417969 7.207031 18.371094 7.230469 L 3.941406 14.742188 C 3.921875 14.75 3.898438 14.753906 3.871094 14.753906 Z M 4.304688 0.5 L 8.152344 7.273438 C 8.175781 7.320312 8.175781 7.371094 8.152344 7.417969 L 4.25 14.246094 L 17.972656 7.109375 Z M 4.304688 0.5 " fill-opacity="1" fill-rule="nonzero"/></g></svg>